# This file uses centimeters as units for non-parametric coordinates.

mtllib WaterMesh.mtl
g default
v -63.910408 0.000000 63.910408
v 0.000000 0.000000 63.910408
v -63.910408 0.000000 0.000000
v 0.000000 0.000000 0.000000
v 63.910408 0.000000 0.000000
v -63.910408 0.000000 -63.910408
v 0.000000 0.000000 -63.910408
v 63.910408 0.000000 -63.910408
vt -4.867859 -4.867859
vt 0.500000 -4.867859
vt -4.867859 0.500000
vt 0.500000 0.500000
vt 5.867859 0.500000
vt -4.867859 5.867859
vt 0.500000 5.867859
vt 5.867859 5.867859
vn 0.000000 1.000000 0.000000
vn 0.000000 1.000000 0.000000
vn 0.000000 1.000000 0.000000
vn 0.000000 1.000000 0.000000
vn 0.000000 1.000000 0.000000
vn 0.000000 1.000000 0.000000
vn 0.000000 1.000000 0.000000
vn 0.000000 1.000000 0.000000
s 1
g pPlane1
usemtl initialShadingGroup
f 1/1/1 2/2/2 4/4/3 3/3/4
f 3/3/4 4/4/3 7/7/5 6/6/6
f 4/4/3 5/5/7 8/8/8 7/7/5
